<svg id="Layer_1" data-name="Layer 1" xmlns="http://www.w3.org/2000/svg" viewBox="0 0 1459.89 430.26"><defs><style>.cls-1{fill:#82cfd5;}.cls-2{fill:#ffcc0a;}.cls-3{fill:#3bbfc6;}.cls-4{fill:#e87f24;}.cls-5{fill:#4b4b4b;}</style></defs><title>logo</title><path class="cls-1" d="M508.47,188.16a80.86,80.86,0,0,0-73,115.7,144.66,144.66,0,0,0-192,3.22,81.14,81.14,0,1,0-22.68,26.49,144.73,144.73,0,0,0,83.31,220l37.17,64.87,38.08-65.11a144.74,144.74,0,0,0,84.14-217.06A80.85,80.85,0,1,0,508.47,188.16ZM436.79,487.55a121.46,121.46,0,0,1-63.67,42.6,24,24,0,0,0-14.42,11l-17.15,29.32L325,541.62a24,24,0,0,0-14.68-11.27A120.7,120.7,0,1,1,462,413.69,119.49,119.49,0,0,1,436.79,487.55Z" transform="translate(-91.35 -188.16)"/><path class="cls-2" d="M409,392H350.13a1.27,1.27,0,0,1-1.13-.81V342a8,8,0,0,0-16,0v48.87c-5,2.62-7.47,7.39-7.47,12.85a14.93,14.93,0,0,0,11.06,14.5,14.7,14.7,0,0,0,3.81.5,14.85,14.85,0,0,0,3.93-.49c3.16-.86,5.87-3.19,7.84-5.19H409A10.5,10.5,0,0,0,409,392Z" transform="translate(-91.35 -188.16)"/><path class="cls-3" d="M508.47,188.16a80.85,80.85,0,0,0-73,115.7A144.56,144.56,0,0,0,341.17,269H341v24h0.17a120.72,120.72,0,0,1,95.6,194.55,121.43,121.43,0,0,1-63.66,42.6,24,24,0,0,0-14.41,11l-17.32,29.32-0.38-.37V618h0.17l38.16-64.9a144.61,144.61,0,0,0,84.21-216.91A80.84,80.84,0,1,0,508.47,188.16Z" transform="translate(-91.35 -188.16)"/><circle class="cls-4" cx="249.25" cy="215.46" r="15.07"/><path class="cls-5" d="M708.12,466.21a53.56,53.56,0,0,1-16.87-2.27,40.43,40.43,0,0,1-10.62-5.08,19.81,19.81,0,0,1-5.47-5.39,9.48,9.48,0,0,1-1.56-3.36,16.56,16.56,0,0,1,1.25-6,29.29,29.29,0,0,1,3.13-5.94,23.58,23.58,0,0,1,4.06-4.61,6.37,6.37,0,0,1,3.91-1.87q2.19,0,3.59,2.81l1.56,1.56a17.37,17.37,0,0,0,3.52,2.58,28.61,28.61,0,0,0,5.63,2.42,25.5,25.5,0,0,0,7.89,1.09q9.84,0,16.09-6t6.25-16.33A24.52,24.52,0,0,0,727.1,407a44.63,44.63,0,0,0-8.83-10.47,109.16,109.16,0,0,0-12.5-9.45q-7-4.61-14.37-9.61T677,366.68a72,72,0,0,1-12.5-13.28,66.08,66.08,0,0,1-8.83-17,64.4,64.4,0,0,1-3.36-21.64,65.49,65.49,0,0,1,3.59-21.09,87.82,87.82,0,0,1,9.92-20.23A109.71,109.71,0,0,1,699.37,241a95.75,95.75,0,0,1,20.86-9.69,70.39,70.39,0,0,1,21.8-3.52,45.56,45.56,0,0,1,16.88,3,35.14,35.14,0,0,1,12.66,8.36,37.25,37.25,0,0,1,8,13,48.44,48.44,0,0,1,2.81,17,50.87,50.87,0,0,1-3.12,17.5,74.7,74.7,0,0,1-8.28,16.25,95,95,0,0,1-11.64,14.14A100.17,100.17,0,0,1,746,328.16a69.6,69.6,0,0,1-13.2,7.42,30,30,0,0,1-11.25,2.66,14.78,14.78,0,0,1-7.58-2,19.44,19.44,0,0,1-5.62-4.84,23.91,23.91,0,0,1-3.52-6.09,15.91,15.91,0,0,1-1.25-5.7,4.35,4.35,0,0,1,.55-2.66,1.77,1.77,0,0,1,1.56-.55,16.63,16.63,0,0,1,2.58.47,14.83,14.83,0,0,0,3.59.39q6.56,0,14.53-4.53a70.53,70.53,0,0,0,15-11.56,71.67,71.67,0,0,0,11.8-15.47A33.31,33.31,0,0,0,758,269.33q0-8.12-4-12.81t-13.52-4.69a41.84,41.84,0,0,0-12.89,2.27,73.62,73.62,0,0,0-14,6.33A84.87,84.87,0,0,0,700,270.27,76.35,76.35,0,0,0,688.43,283a65,65,0,0,0-8,15,47,47,0,0,0-3,16.8,38.81,38.81,0,0,0,3.36,16.48,49.86,49.86,0,0,0,8.91,13.2,82.6,82.6,0,0,0,12.58,10.94q7,5,14.38,9.92t14.38,10.16a81,81,0,0,1,12.58,11.56,53.68,53.68,0,0,1,8.91,14.06,44.17,44.17,0,0,1,3.36,17.73A47.34,47.34,0,0,1,742,452.3a47.87,47.87,0,0,1-15.16,10.16A47.1,47.1,0,0,1,708.12,466.21Z" transform="translate(-91.35 -188.16)"/><path class="cls-5" d="M784.05,348.08a21.94,21.94,0,0,0-.7-6.56,11.52,11.52,0,0,1-.7-3.75,4.38,4.38,0,0,1,2.5-3.83,11.42,11.42,0,0,1,5.94-1.48q8,0,12.58,4.14a12.9,12.9,0,0,1,4.61,9.92V360.9a110.17,110.17,0,0,1,7.11-12.5,59.89,59.89,0,0,1,8.28-10.08,36.18,36.18,0,0,1,9.53-6.72,25.26,25.26,0,0,1,11-2.42q8,0,13.13,3a23,23,0,0,1,8.13,7.66,30.86,30.86,0,0,1,4.14,10.47,56.58,56.58,0,0,1,1.17,11.25v66.25q0,1.1.16,3.52a20.81,20.81,0,0,0,.94,4.92,12,12,0,0,0,2.42,4.38,6,6,0,0,0,4.77,1.88,11.54,11.54,0,0,0,8.36-3.44,31.69,31.69,0,0,0,6.09-8.59,60.48,60.48,0,0,0,4.22-11.17q1.64-6,2.73-11.33,0.94-5,3.13-7.27a6.35,6.35,0,0,1,4.53-2.27,7.83,7.83,0,0,1,3.91,1.17,14.52,14.52,0,0,1,3.67,3,16.1,16.1,0,0,1,2.66,4.22,11.73,11.73,0,0,1,1,4.69v0.78a5,5,0,0,1-.31,1.41,133.55,133.55,0,0,1-5.55,16.72,69.64,69.64,0,0,1-9.06,16.09,49.83,49.83,0,0,1-13.2,12.19,32.91,32.91,0,0,1-18,4.84,25.34,25.34,0,0,1-11.33-2.42,26.54,26.54,0,0,1-8.44-6.48,27.45,27.45,0,0,1-5.31-9.53,36.76,36.76,0,0,1-1.8-11.56v-65q0-3.75-.16-7a26.12,26.12,0,0,0-.86-5.78,10,10,0,0,0-2-4,4.68,4.68,0,0,0-3.67-1.48q-3.44,0-8.44,4.69a64.79,64.79,0,0,0-9.84,12.19,93.52,93.52,0,0,0-8.52,17,71.62,71.62,0,0,0-4.61,19V449.8q0,2.34-.08,4.77a11.78,11.78,0,0,1-.94,4.38,8.11,8.11,0,0,1-2.66,3.28,8.74,8.74,0,0,1-5.23,1.33,26,26,0,0,1-5.08-.55,14.08,14.08,0,0,1-5-2,11.43,11.43,0,0,1-3.75-4.22,15.22,15.22,0,0,1-1.48-7.27V348.08Z" transform="translate(-91.35 -188.16)"/><path class="cls-5" d="M990,442.46a11.54,11.54,0,0,0,8.36-3.44,31.69,31.69,0,0,0,6.09-8.59,60.48,60.48,0,0,0,4.22-11.17q1.64-6,2.73-11.33,1.09-5,3.2-7.27a6.24,6.24,0,0,1,4.61-2.27,7.42,7.42,0,0,1,3.83,1.17,15.14,15.14,0,0,1,3.59,3,16.1,16.1,0,0,1,2.66,4.22,11.73,11.73,0,0,1,1,4.69v0.78a5,5,0,0,1-.31,1.41,133.55,133.55,0,0,1-5.55,16.72,71.33,71.33,0,0,1-9,16.09,48.27,48.27,0,0,1-13.2,12.19,33.3,33.3,0,0,1-18,4.84A29,29,0,0,1,969.52,460a27,27,0,0,1-9.84-9.53,44.69,44.69,0,0,1-11.64,9.3,31.78,31.78,0,0,1-15.86,3.83,34.82,34.82,0,0,1-16.48-3.75,35.27,35.27,0,0,1-12-10.23,45.26,45.26,0,0,1-7.27-15.31,71.43,71.43,0,0,1-2.42-19q0-20,6.41-35.94a84.57,84.57,0,0,1,17-27.11,73.94,73.94,0,0,1,24.3-17.11,70.49,70.49,0,0,1,28.36-5.94q6.56,0,10.63,3.59t4.06,9.84q0,4.06-.86,5.7a3.28,3.28,0,0,1-3.2,1.64,34,34,0,0,1-4.53-.31,36.78,36.78,0,0,0-4.84-.31,46.9,46.9,0,0,0-18.44,4,49.24,49.24,0,0,0-17,12.19,64.21,64.21,0,0,0-12.42,20.78q-4.85,12.58-4.84,29.92,0,12.66,4.84,19.45a15.44,15.44,0,0,0,13.28,6.8,14,14,0,0,0,10.94-4.92,38.85,38.85,0,0,0,7-11.64V376.52a27.06,27.06,0,0,0-.23-3.91q-0.23-1.56-.47-2.66c-0.16-.73-0.29-1.38-0.39-2a9,9,0,0,1-.16-1.64,4.5,4.5,0,0,1,2.42-4,11,11,0,0,1,5.86-1.48q8,0,12.66,4.14a12.8,12.8,0,0,1,4.69,9.92v52.81a22.06,22.06,0,0,0,.63,5.23,16.88,16.88,0,0,0,1.88,4.69,10.07,10.07,0,0,0,3.36,3.44A9,9,0,0,0,990,442.46Z" transform="translate(-91.35 -188.16)"/><path class="cls-5" d="M1052.49,466.83a29.58,29.58,0,0,1-9.69-1.33A14.19,14.19,0,0,1,1037,462V566.05a12.38,12.38,0,0,1-6,11.41,16.44,16.44,0,0,1-5.55,2.11,29.78,29.78,0,0,1-5.31.55q-4.85,0-6.09-2.5a13.51,13.51,0,0,1-1.25-6.09V348.08a21.91,21.91,0,0,0-.55-5.47,20.73,20.73,0,0,0-1.09-3.2,10.08,10.08,0,0,0-1.09-1.87,2.59,2.59,0,0,1-.55-1.64,1.74,1.74,0,0,1,.94-1.41,9.46,9.46,0,0,1,2.5-1.09,21.18,21.18,0,0,1,3.36-.7,27.13,27.13,0,0,1,3.52-.23q7.65,0,12.27,4.14a13.71,13.71,0,0,1,4.92,9.61,46.2,46.2,0,0,1,12-12.19q7-4.84,17.19-4.84a30,30,0,0,1,16.33,4.38,35.87,35.87,0,0,1,11.56,12A58.34,58.34,0,0,1,1101,363.4a103.41,103.41,0,0,1,2.27,22.19,136.71,136.71,0,0,1-2.34,25.7,110.23,110.23,0,0,1-5.94,21,51.87,51.87,0,0,0,13.13-2.19,25.24,25.24,0,0,0,8.67-4.77,29.58,29.58,0,0,0,6.09-7.42q2.58-4.37,5.39-10a45.2,45.2,0,0,1,3.67-6.56,4.42,4.42,0,0,1,3.67-2,8.11,8.11,0,0,1,4.14,1.25,15.4,15.4,0,0,1,3.75,3.13,17.77,17.77,0,0,1,2.66,4,9,9,0,0,1,1,3.83q0,5.47-3.75,12.5a44,44,0,0,1-11.48,13.28,67.69,67.69,0,0,1-19.53,10.55q-11.8,4.3-27.73,4.3A46.41,46.41,0,0,1,1069.52,463,41.61,41.61,0,0,1,1052.49,466.83Zm5.63-116.25a12.24,12.24,0,0,0-6.64,2,24.8,24.8,0,0,0-6,5.55,35.89,35.89,0,0,0-4.92,8.52,70.8,70.8,0,0,0-3.52,10.78v69.22q3.44-5,11.25-7.66a80.34,80.34,0,0,1,18.91-3.59,46.57,46.57,0,0,0,4.92-10.08,101.4,101.4,0,0,0,3.52-12.11,119.5,119.5,0,0,0,2.11-12.19,94.13,94.13,0,0,0-.94-29.06,41.86,41.86,0,0,0-4.45-12.42,18.48,18.48,0,0,0-6.48-6.87A15.3,15.3,0,0,0,1058.12,350.58Z" transform="translate(-91.35 -188.16)"/><path class="cls-5" d="M1286.87,448.55q1.88,1.25.78,3.75a15,15,0,0,1-4.06,5.08,29.54,29.54,0,0,1-7,4.45,17.62,17.62,0,0,1-8.12,1.72,16.36,16.36,0,0,1-7.66-2.34,19.81,19.81,0,0,1-6.64-6.8,41.07,41.07,0,0,1-4.69-11.48,65.45,65.45,0,0,1-1.8-16.41V278.4q0-9.06-1.8-14.06a18.46,18.46,0,0,0-4.22-7.27,9.47,9.47,0,0,0-5-2.66,29.3,29.3,0,0,0-4.14-.39,26.12,26.12,0,0,0-4.37.47,9.27,9.27,0,0,0-5.08,3q-2.42,2.58-4.14,8.13t-1.72,15.86V454.33a2,2,0,0,1,1.56,1.56q0,1.25-1.8,2.58a23.55,23.55,0,0,1-4.45,2.5,30.32,30.32,0,0,1-6,1.88,31,31,0,0,1-6.33.7,18.06,18.06,0,0,1-5.55-.78q-2.42-.78-2.42-5.31V278.4q0-9.06-1.64-14.06a17.76,17.76,0,0,0-4-7.27,9.08,9.08,0,0,0-4.92-2.66,30.55,30.55,0,0,0-4.45-.39,29.26,29.26,0,0,0-4.14.39,9.85,9.85,0,0,0-5.08,2.66,17.83,17.83,0,0,0-4.3,7.27q-1.8,5-1.8,14.06V420.12q0,21.25-7,32.34t-20.47,11.09a15.54,15.54,0,0,1-7.42-1.56,13.62,13.62,0,0,1-4.61-3.91,14.79,14.79,0,0,1-2.42-5,19.06,19.06,0,0,1-.7-4.84,1.37,1.37,0,0,1,.7-1.41,5,5,0,0,1,2-.31c0.83,0,1.77,0,2.81-.08a11.2,11.2,0,0,0,3.28-.7,8.83,8.83,0,0,0,3.2-2.5,16.62,16.62,0,0,0,2.89-5.47,49.58,49.58,0,0,0,2-9.06,97.43,97.43,0,0,0,.78-13.44V281.52q0-14.06,3.52-23.75a46.18,46.18,0,0,1,9.14-15.78,32.94,32.94,0,0,1,12.73-8.75,40.59,40.59,0,0,1,14.3-2.66,51.56,51.56,0,0,1,5.47.39,36.79,36.79,0,0,1,7.58,1.8,42,42,0,0,1,8.36,4,33.84,33.84,0,0,1,8,7,27.2,27.2,0,0,1,6.56-7,33.79,33.79,0,0,1,7.11-4,27,27,0,0,1,6.72-1.8,47,47,0,0,1,5.55-.39,42.72,42.72,0,0,1,14.77,2.66,33.35,33.35,0,0,1,13,8.75,46.43,46.43,0,0,1,9.3,15.78q3.59,9.69,3.59,23.75V423.87a31.82,31.82,0,0,0,1.17,9,27.09,27.09,0,0,0,3.13,7,20.89,20.89,0,0,0,4.61,5.16A31.29,31.29,0,0,0,1286.87,448.55Z" transform="translate(-91.35 -188.16)"/><path class="cls-5" d="M1394.05,442.46a11.54,11.54,0,0,0,8.36-3.44,31.69,31.69,0,0,0,6.09-8.59,60.48,60.48,0,0,0,4.22-11.17q1.64-6,2.73-11.33,1.09-5,3.2-7.27a6.24,6.24,0,0,1,4.61-2.27,7.42,7.42,0,0,1,3.83,1.17,15.14,15.14,0,0,1,3.59,3,16.1,16.1,0,0,1,2.66,4.22,11.73,11.73,0,0,1,1,4.69v0.78a5,5,0,0,1-.31,1.41,133.55,133.55,0,0,1-5.55,16.72,71.33,71.33,0,0,1-9,16.09,48.27,48.27,0,0,1-13.2,12.19,33.3,33.3,0,0,1-18,4.84,29,29,0,0,1-14.69-3.59,27,27,0,0,1-9.84-9.53,44.69,44.69,0,0,1-11.64,9.3,31.78,31.78,0,0,1-15.86,3.83,34.82,34.82,0,0,1-16.48-3.75,35.27,35.27,0,0,1-12-10.23,45.26,45.26,0,0,1-7.27-15.31,71.43,71.43,0,0,1-2.42-19q0-20,6.41-35.94a84.57,84.57,0,0,1,17-27.11,73.94,73.94,0,0,1,24.3-17.11,70.49,70.49,0,0,1,28.36-5.94q6.56,0,10.63,3.59t4.06,9.84q0,4.06-.86,5.7a3.28,3.28,0,0,1-3.2,1.64,34,34,0,0,1-4.53-.31,36.78,36.78,0,0,0-4.84-.31,46.9,46.9,0,0,0-18.44,4,49.24,49.24,0,0,0-17,12.19,64.21,64.21,0,0,0-12.42,20.78q-4.85,12.58-4.84,29.92,0,12.66,4.84,19.45a15.44,15.44,0,0,0,13.28,6.8,14,14,0,0,0,10.94-4.92,38.85,38.85,0,0,0,7-11.64V376.52a27.06,27.06,0,0,0-.23-3.91q-0.23-1.56-.47-2.66c-0.16-.73-0.29-1.38-0.39-2a9,9,0,0,1-.16-1.64,4.5,4.5,0,0,1,2.42-4,11,11,0,0,1,5.86-1.48q8,0,12.66,4.14a12.8,12.8,0,0,1,4.69,9.92v52.81a22.06,22.06,0,0,0,.63,5.23,16.88,16.88,0,0,0,1.88,4.69,10.07,10.07,0,0,0,3.36,3.44A9,9,0,0,0,1394.05,442.46Z" transform="translate(-91.35 -188.16)"/><path class="cls-5" d="M1456.55,466.83a29.58,29.58,0,0,1-9.69-1.33,14.19,14.19,0,0,1-5.78-3.52V566.05a12.38,12.38,0,0,1-6,11.41,16.44,16.44,0,0,1-5.55,2.11,29.78,29.78,0,0,1-5.31.55q-4.85,0-6.09-2.5a13.51,13.51,0,0,1-1.25-6.09V348.08a21.91,21.91,0,0,0-.55-5.47,20.73,20.73,0,0,0-1.09-3.2,10.08,10.08,0,0,0-1.09-1.87,2.59,2.59,0,0,1-.55-1.64,1.74,1.74,0,0,1,.94-1.41,9.46,9.46,0,0,1,2.5-1.09,21.18,21.18,0,0,1,3.36-.7,27.13,27.13,0,0,1,3.52-.23q7.65,0,12.27,4.14a13.71,13.71,0,0,1,4.92,9.61,46.2,46.2,0,0,1,12-12.19q7-4.84,17.19-4.84a30,30,0,0,1,16.33,4.38,35.87,35.87,0,0,1,11.56,12,58.34,58.34,0,0,1,6.88,17.89,103.41,103.41,0,0,1,2.27,22.19,136.71,136.71,0,0,1-2.34,25.7,110.23,110.23,0,0,1-5.94,21,51.87,51.87,0,0,0,13.13-2.19,25.24,25.24,0,0,0,8.67-4.77,29.58,29.58,0,0,0,6.09-7.42q2.58-4.37,5.39-10a45.2,45.2,0,0,1,3.67-6.56,4.42,4.42,0,0,1,3.67-2,8.11,8.11,0,0,1,4.14,1.25,15.4,15.4,0,0,1,3.75,3.13,17.77,17.77,0,0,1,2.66,4,9,9,0,0,1,1,3.83q0,5.47-3.75,12.5A44,44,0,0,1,1536,437.3a67.69,67.69,0,0,1-19.53,10.55q-11.8,4.3-27.73,4.3A46.41,46.41,0,0,1,1473.58,463,41.61,41.61,0,0,1,1456.55,466.83Zm5.63-116.25a12.24,12.24,0,0,0-6.64,2,24.8,24.8,0,0,0-6,5.55,35.89,35.89,0,0,0-4.92,8.52,70.8,70.8,0,0,0-3.52,10.78v69.22q3.44-5,11.25-7.66a80.34,80.34,0,0,1,18.91-3.59,46.57,46.57,0,0,0,4.92-10.08,101.4,101.4,0,0,0,3.52-12.11,119.5,119.5,0,0,0,2.11-12.19,94.13,94.13,0,0,0-.94-29.06,41.86,41.86,0,0,0-4.45-12.42,18.48,18.48,0,0,0-6.48-6.87A15.3,15.3,0,0,0,1462.18,350.58Z" transform="translate(-91.35 -188.16)"/></svg>